<svg xmlns="http://www.w3.org/2000/svg" xmlns:xlink="http://www.w3.org/1999/xlink" viewBox="0 0 976 1600">
<style type="text/css">
	.st0{fill:#FFFFFF;}
	.st1{clip-path:url(#SVGID_2_);}
	.st2{fill:#333333;}
	.st3{fill:#D81E1E;}
	.st4{fill:none;stroke:#333333;stroke-width:2;stroke-linecap:square;stroke-miterlimit:3;}
</style>
<g id="Paper_Backing">
	<path class="st0" d="M960,22v1556c0,3.3-2.7,6-6,6H22c-3.3,0-6-2.7-6-6V22c0-3.3,2.7-6,6-6h932C957.3,16,960,18.7,960,22z"/>
</g>
<g id="Wikipedia_Cropped">
	<g>
		<defs>
			<path id="SVGID_1_" d="M960,22v1556c0,3.3-2.7,6-6,6H22c-3.3,0-6-2.7-6-6V22c0-3.3,2.7-6,6-6h932C957.3,16,960,18.7,960,22z"/>
		</defs>
		<clipPath id="SVGID_2_">
			<use xlink:href="#SVGID_1_"  style="overflow:visible;"/>
		</clipPath>
		<g class="st1">
			<path class="st2" d="M567.1,1432.7c-57.8,0-124.5-2.7-181.1-19.9c-7-2,1.6-14.6-8.5-14.3c-40.2-2.5-79.3-20-111.4-45.4
				c-5.7-12.6-20-5.2-11.1,8.5c-15.7,9.6-46.3-18.3-66.5-27.1C116.6,1291,54.1,1230.9,2.9,1168.8c-7.9,8.2-23.8-862.1,6.3-831.4
				c0.4,7,16.7,8.6,18.6,1.5c67.3-19.1,146.8-12.4,216.1,0.9c14.5,3.3,28.9,9.6,45.4,20c5.7,4.7,7.9-5.1,12.8-3.9
				c89.6,23.5,156.6,91.3,202.4,168.8c134.2,222.2,145.6,494.7,128.9,746.7c3.1,42.6,0.1,94.3,17.8,132
				C691.3,1442.3,589,1429,567.1,1432.7z M759.9,1360.5c29.1-185.6-15.4-393.9-0.9-587.6c-5-169.8,8-402.4,203.8-457.2l0,0
				c3-1.3,5.1,2.1,8,1.9c3.4-1,8.8-3.1,9.2,2.5c-3.9,123.1,7.5,789.6-4,925.4c-4.3,0-9.2-1.8-12,2.8
				C908.1,1300.9,841.4,1361.2,759.9,1360.5z"/>
			<path class="st3" d="M0,1604c-5.9-97.9-8.8-343.9,0-438.3c27.9,41.2,68.2,79.4,102.8,114.4c25.1,13.2,48.4,29.6,69.2,48.9
				c8.2,6.1,22.5,7.8,28.1,17.9c26,12.1,60.2,22.6,83.7,39.8c32.9,7.1,70.5,17.3,96.8,35.9c23.5,0,49.5-4.2,70.9,11.3
				c66.1-6.8,133.8,8.9,199.6-6.5c24.9-3.5-7.1-24.6-2.5-37.9c-5.3-14.6-5-29.7-8.3-44.2c-3.3-10.7,2.2-21.6-2.8-31
				c2.7-36.8-4.8-77.8,8.9-111.8c1.7-2.7,1.1-6.2-1.5-8.1c-3.8-6.5-0.7-16.1-0.9-23.7c-1.1-8.4,9.7-18.4,2.6-25
				c-4.9-14.9-4.7-36,0.7-50.9c3.7-5.5-4.5-8.8-2.8-14.4c3.6-10.7-5-24.1,0.8-34.6c-8.8-74.9-13-148.7-26-224
				c3.1-15.3,0.6-10.5-6-23.2c-3.3-24.8-13.3-49.6-15.1-73.8c-14.2-32.6-23-69.8-38.9-100.7c-12.1-40.1-39.5-71.5-45.9-107.4
				c-10.1-13-27.2-20.1-19.3-35.3c-15-12.8-37.1-19.2-40.7-37.9c-28-21.7-54.6-53.1-90.6-67c-59.1-32.6-116.8-38.2-176.9-53
				c-2.7-3.6-7.6-2.3-10.7,0.2c-9,5.3-22.9,1.8-33.1,0.7c-31.8-5.8-64.5,6.1-96.6,6.5c-6.7-0.2-13,1.3-19.8,2.8
				c-4.6-0.3-4.2-7-9.3-6.6c-5.4-0.2-7.3,6.7-7.2,10.9c0.3,5.1-6.3,3.8-9.3,4C-11.3,342.7-0.3,4-4,0c306.9-11.6,667.9,0,980-4
				c12.7,56.1-0.8,247.4,4,312.1c-0.9,7.7-8.2,1.5-11.8,1.7c-24.8,14.9-49.7,17.2-78.4,35.4c-64.9,37.9-101.6,109.8-114,180.4
				c-0.1,19.9-15.8,36.6-14.5,53.1c3.9,18.1-2.8,38.8-2.8,57.7c1.5,11.7-3.5,19.9-7.5,28.4c11,9.4,1.5,22.7,3.9,35.8
				c-3.4,22.8,6.9,54.1-5,72.7c-8.4,7,4.1,9.4,5.1,14.8c-5.2,33.9,4.6,69.1-5.5,101.6c-3,4.8,3,7.4,3.5,11.7
				c2.7,7.5-1.3,20.6-3.1,26.2c-2.6,4.5,2.4,7.3,3.2,11.6c6.1,10-1.9,16.9,0.2,25.3c8.5,12.2-2.1,22,1.9,32.1
				c4.9,10.9,4.2,23.8-0.5,34.2c14.1,33.3-3.3,37.2,4.6,52.7c4.3,12.3,4,24.7-0.9,39c10.7,26.3,3.8,60.9,6.5,91.1
				c-3.9,11.9-0.8,12,1.8,21.8c-4.2,21.3,1.6,37.6-1.6,59.5c-0.7,6,1.9,13.3-3,18.1c-1.2,12.9-3.4,26.8-8.3,40.4
				c7.7,19.3,42.7,9.7,60,4.7c76.1-23,112.7-67.6,162.2-120.5c11.5-0.7,0.1,358.4,4,362.5C980.9,1611.9,4,1599.8,0,1604z"/>
			<path d="M976,494c-4.4-30.2-11.9-60.1-19.5-89.6c-2.4-8.6-2.3-19.5-11.4-25.6c7.8-20.9,19.7-39.6,30.9-58.6
				c2.7-3.6,7.9-8.5,3.8-10.2c-6.2-2.8-13.1-7.7-19.7-0.1c-2,2.4-5.6,4.1-8.8,5c-22.5,5.9-43.6,15.6-63.6,27
				c-51.9,28.3-83.1,81.1-103.6,135.2c-7.7,22.8-28.6,38.1-42.2,57.9c-47.9,59.9-97.5,119-144.1,179.9
				c-5.3-15.6-11.8-30.8-15.5-46.6c-2.5-10.5-16.6-18.8-3.6-33c20.2-22.1,38.2-46.4,59-68.2c2.3-2.5,3.7-5-1.1-8.3
				c-6.9-4.8-14.6-2.3-22.1-4.2c28.3-31.8,54.3-63,81.4-95.2c7.5,13.1,0.5,41.8-4.4,56c-1.6,4.1-4.1,8.4-2.2,13.1
				c0.1,0.2,5.1-0.6,6.6-2.2c29.5-26.4,72.1-58.4,66.3-103.1c-7.2-22,9.3-48.1-10.6-64.9c-8.2-5.9-13.4-12.5-3-21.3
				c20.4-26.6,42.8-51.5,67-74.6c18-17.8,43.6-24.6,60.9-43.5c29.2-30.8,47.1-69.8,74.9-101.5c7.7-8.4,16.2-16,24.4-24
				c3.9-3.8,0.6-8,0.1-11.9c-15.3-4.3-62,62-72.5,75.1c-5.1-20.7-3.8-42.6-6.9-63.7c-0.5-4,0-11.6-6.9-11.4
				c-4.3,0.2-3.2,5.8-2.7,8.9c2.6,18,3.9,36.2,3.9,54.4c2.3,9.7,5.1,21.7,0,30.6c-12.5,19.8-29.2,37.3-49.3,49.5
				c1.2-22.9,1.7-45.9,1.1-68.9c0.1-2.7-1.7-6.7-4.9-6.4c-3,0.3-3,4-3,6.9c-0.6,20.3-0.5,40.6-2.3,60.8c-0.8,8.9,0.4,20.8-12.8,23.2
				c-3.5-5.9,0.5-13-1.1-18.7c-4.1-10.2,4.6-35-5.4-40.2c-3.7,0-4.3,3.9-4.3,7.1c0,14.5-1.6,29.2,0.5,43.4
				c2.2,12.3-1.6,20.7-11.9,26.8c-1.3-14.4,0-29.1-0.6-43.6c-0.1-4-0.1-9.9-5.6-9.7c-5.1,0.2-2.1,5.6-2.3,8.4
				c-0.7,14.2-0.8,28.5-1.2,42.7c-0.1,4.4,1.3,10.5-1.1,13c-25.6,27.4-46.6,58.7-69.7,88.2c-8.5,12.5-37.9,22.3-51.8,17.2
				c-10.7-3.9-19.8-9.8-29.1-16c-8.2-5.6-13-12.8-9.5-15.9c26.1-22.5,51.7-45.5,73.6-72.2c69.8-80.9,137.4-168,178.3-267.1
				c-1.5-0.1-3.4-1.2-4.7-0.4c-3.3,2.8-7.9,5.7-8.7,9.4c-2.8,12.7-10.1,23.3-16.1,34.3c-47.2,82.7-105,158-167.6,229.6
				c31.6-89.6,67.7-177.7,98.5-267.6c0.8-2.3,4.5-4.1,1.8-7.2c-0.6-0.6-1.2-1.2-1.8-1.7c-1.6-2.7-6.4,4.6-7,6
				c-11.9,27.8-20.9,57-32.6,84.8c-3.2,6.8-2.4,15.8-10.8,20.2c-19.9,10.5-39.6,21.4-59.3,32.3c-5.2,4.4-6.7-0.4-4.3-4.9
				c26.2-42,51-84.7,74.7-128.2c0.6-1.1-1.3-4.6-2.7-5.1c-0.7,0-1.3,1.2-2,1.6c-7.3,3.7-9.2,11.4-13,17.6
				c-22.6,37.6-44.7,75.5-66.7,113.4c-5,8.9-9.3,18.1-18.8,23.3c-23,13.4-46.6,25.6-70.2,38.2c-16.2,8.8-32.7,17.1-48.2,27
				c-9.6,6.2-17.1,6.8-22.7-3.4c-5.9-10.8-14.3-18-25.2-23.1c-30.7-11.2-26.8,16.7-45.5,22.9c-10.1,3.3-17.1,11.5-18.7,22.7
				c-0.5,3.8,1.4,10.8,0.1,11.3c-28,13.4-71,33.7-76.1,67.2c-0.4,2.5,1.3,2.3,3.6,2.1c12-1.3,22.3-7.6,33.2-11.5
				c16.4-5.2,74.8-18,84.4-1.3c3.5,6.4,1.6,15.1-2.6,22c-4.7,7.7-1.3,30.3,6.3,33.8c22.6,11,44.1,24.5,69.8,28.2
				c-23,17.6-60,8-76.8,35.5c-2.1,3-2.6,2.5-4.9,0.3c-44.9-51.3-109.8-79.6-175.5-94.5c92.8-77,186.1-152.7,277.6-231.4
				c38.2-33,77.2-65,115.5-97.8c1.1-0.9,0.8-3.5,1.2-5.3c-1.8-0.1-4-1.4-5.5-0.5c-24.7,16.7-45.6,38.7-68.9,56.9
				c-77.1,61.2-152.6,124.6-227.8,188.2c-35.7,27.5-69.2,62-106.6,85.8c-7.9,0.3-16-3.8-24-6.1c34.7-28.8,67.3-60.4,104.4-85.8
				c2.6-1.2,5.7-3.4,4.4-7.3c-9.8-7.6-26.6,3.8-38.2,2.9c-24,3.4-47.9,10.8-72,14.5c-12.4,2.2-24.4,7.3-37.7,6.5
				c1.2-2.1,1.8-4.4,3.2-5.4c38.7-28.3,75.4-59.4,113.6-88.6c63.7-51.6,127.5-103.3,192-154c9.7-6,3.4-15.2-6.1-10.9
				C339,103.6,185.2,210,30.7,313.7c10.3-15.2,19.6-33,32.8-47.3c11.8-12.8,17.1-31.1,37.5-37.9c17.7-5.9,33.3-19.1,49-30.1
				C249.9,133.5,350.4,69.5,450.3,4.7c3.2-3,0.2-7.8-4-5.1c-6,3.6-12,7.1-17.9,10.8C317.2,79.8,210.2,149,98.5,218.7
				c16.2-22.2,28.9-40.6,44.7-62.2c7.1-9.8,13-21.6,22.4-28.3c69.8-44.5,145-80.1,215.5-123.4c5-2.5,2.9-8.2-2.7-5.2
				c-33.8,14.3-64.2,35.8-96.8,52.6C246,69.8,213.3,92,177.5,109c22.9-33.2,46.7-65,70.1-97.8c2-2.8,5.5-6.2,2.6-9.5
				c-2.5-2.6-5.9-0.4-8.4,1.4c-20.3,15.1-40.6,30.2-60.9,45.2c-36.3,27-72.8,53.8-108.9,81l-1.5-1.8c44.3-42.6,88.6-85.3,134-129
				c-5.4-0.7-7.7-1.7-10.5,1.5c-17.7,16.3-35.6,32.3-53.3,48.6c-45.3,42.5-91,84.6-135,128.4c-3.8,3.7,1.3,12.6,6.7,8.4
				C85,132.7,154.1,77.1,227.3,24.6c-14.1,22.6-31.6,42.9-46.3,65.2c-7.6,10.5-13.7,23.3-23.7,30.5c-49.7,30.4-102.3,57.4-153,86.3
				c-6.9,3.3-2.6,12.2,3.7,7.6c44.9-25.1,89.7-48.8,134.8-73.6c-41.7,62.2-87.6,119.5-130.9,180.3c-5.2,7-8.3,14.5-5.8,22.6
				c2,6.3,9.8,2.3,14.7,3.8c62.5,4.7,116.5,41.7,165.1,78.7c9,7.2,1.1,10.6,0.5,15.3c-0.4,3.5-4.4,0.8-7,0.5
				c-12-1.1-24-3.4-35.9-2.5c-30.1,4.1-62.8,7-88.7,24.4c-1.5,1.1-5.8,1-3.8,4.1c0.9,1.3,5.2,1.5,7.3,0.6
				c38.9-15.1,81.7-22.1,123.5-18.7c-2.8,8.2-4,18.1-14.3,19c-19.6,6.2-38.6,14.2-56.7,24c-27,17.7-58.1,30.7-77.1,58
				c-6.3,5.5-0.4,9.7,4.7,3.5c36.7-34.3,82.4-58.2,128.6-76.7c2.4-0.9,5-0.2,3.5,2.2c-5.8,9.4-6.2,22.4-15.2,29
				c-42.2,32.2-89.5,57.8-128.9,93.6c-2,1.9-2.3,4-1.5,5.6c1.2,2.6,1.7-0.4,2.6-0.8c44.3-26.8,84.7-57.7,127.4-87.2
				c-8.2,15.5-7.1,32.8-17.5,47.1C104.1,610,61.6,644.3,22.1,681.4c-2.4,2.2-7,4.8-3.7,8.3c2.8,2.9,6.7-0.8,9.1-2.7
				c39.3-30.6,74.4-65.7,108.8-101.2c1.2,9.1-0.8,18.6-1.6,27.8c-0.1,24.4-16.2,40-32.9,55.4c-18.1,18.7-36.6,37-55.5,54.9
				c-10.8,10.2-22.6,19.3-33.8,29c-1,0.9-1,2.8-1.5,4.2c26.4-9.3,46-35.1,67.2-53.5c17.8-15.7,32.9-34.1,49.8-50.4
				c0.6,0.9,1.7,1.9,1.6,2.7c-0.8,12.2-1.7,24.4-2.8,36.6c-0.7,7.5,0.8,17-3.2,22c-26.9,36-66.2,59.4-97.4,91.2
				c-3.7,9,9.7,0.5,12.3-1.5c27.2-21.5,56.5-41.6,77.3-69.8c1.3-2.2,4.2-3.4,6.4-5.1c1.4,11.1-3,22-1.3,33.3c0.2,4.1,2.6,7.9-1,11.9
				c-11.3,12.8-21.6,26.5-33.5,38.7c-13.8,16.1-33.9,27.5-45.3,45.4c19.8-1.4,63.9-54,78.2-71.7c-2.2,20.9,3,40.3-14.6,56.5
				c-18.4,17-34.2,36.8-53.7,52.9c-2.9,2.4-4.3,6.7-6.4,10.2c18.6-1,56.3-50.4,71.9-65c1.2,28.9,2.3,34.6-21.7,52.7
				c-15.7,13.7-31.6,27.2-47.1,41.1c-2.6,2.3-6.6,5.5-4.3,9.6c1.3,2.3,3.6-0.8,5.2-1.8c23.7-14.8,43.1-34.5,63.1-53.7
				c1.5-1.4,4-4.1,4.1-0.2c0.3,6.8,1.3,15.5-2.2,20.3c-21.9,29.7-48,56.3-72.9,83.4c-1,1.1-3.1,2.5-0.5,4.5c2,1.5,3.7,1.1,5.3-0.5
				c24.6-22.6,45.4-48.3,67.4-73.5c-1.2,18.1,2.5,35.3-12.8,52.8c-21.7,24.9-42.3,50.7-65.5,74.3c-1.9,2-2.4,3.5-0.9,5.4
				c5.6,5.7,21.3-16.9,26.2-20.6c20.4-19.2,37-42.8,53.1-65.1c2.8,7-2.2,14,1.4,21.6c1.9,4,1.8,11.4-0.7,14.7
				c-27.6,35.6-56.1,71-90.9,99.9c-9.2,6.3-3.3,12.8,4.5,5c35.7-27.4,61-60.5,88.6-96.3c-3,17.5,2.5,33.7-10.6,47.8
				c-12.2,13.2-20.3,29.9-31.2,44.5c-6.7,11.1-38.5,38.5-33.3,50.6c2.5,2.3,4-0.3,4.9-1.4c20.7-29.5,46.9-54.9,64.7-87
				c-3.1,23.8-1,47.9-4.5,71.5c-3,20.5-5.9,41-7,61.6c-0.2,4.7-2.2,13.6,1.3,13.8c8.7,0.3,2-10.6,6.6-15.3
				c1.6-37.3,10.4-73.2,11.1-110.6c-0.4-29.7,5.7-58.6,7.9-88.6c9.2,23.5,13.3,50.4,29.2,70.3c0.2-1.5,1-3.2,0.6-4.5
				c-9.6-30.4-23.4-60.2-30.7-91.2c-1.2-12.9-0.8-26-0.7-39c0.9-7.2-0.7-21.9,3.6-26.9c14.4,35.1,23.2,76.5,47.6,107.3
				c-11.2-30.4-25.2-61.7-36-93.1c-4.8-13.3-14.4-25.1-12.8-40.7c1.8-18.1,1.6-32.6,2.7-51.4c13.6,40.8,22.4,79.9,45.6,113.2
				c2.8-0.9,1.2-3.5,0.2-5.5c-15.4-31.4-23.2-65.7-36.4-98c-2.4-6.6-7.9-12.9-8-19.4c-0.3-27,2.3-54,2.4-81.1c0-1,1.3-2,2-3
				c5.3,10.1,4.5,23.2,10.2,33C161.2,809.8,165.4,848,185,885c-9.8-50-27.8-97.7-37.6-147.7c-1.9-9.3-10.7-15.7-10.2-25.3
				c1.7-28.6,4.2-52.5,6.5-82.2c17.5,51.4,23.8,102.8,39,152.1c5.8-3.9-0.7-19.9-1.8-29.6c-1.2-11.8-3.8-23.4-6.2-35
				c-7.8-33-12.8-66.6-22.8-99.1c-2.1-5.8-6.3-11.5-4.7-18.8c5-19.5,7.2-39.9,13.2-58.9c0.7,0.9,1.8,1.7,2,2.7
				c3.7,18.4,5.5,37.3,9.2,55.7c5.4,21.8,12.4,48.2,19.6,68.5c1.4-1.8,3.7-0.3,1.5-9.4c-2.8-15.8-5.1-31.7-7.7-47.5
				c-3.1-18.5-6.1-37-9.6-55.5c-2.4-12.7-8.6-25.5-7.5-37.8c3.8-25.6,21.3-48.5,27.6-73.8c0.4-1.7,0.3-7.6,3.5-5.9
				c5.5,2.9,11.1,6.9,9.7,15.3c-2.3,13-4.2,26.1-5.7,39.3c-1.3,24.4-7.8,77.8,5.2,97.1c0-44.9,2.3-89.7,6.9-134.4
				c0.1-1-1.1-3.2,1.4-2.7c5.9,1.1,21.3,22.1,20.4,27.9c-5.3,49.4-9.3,101.2,4.3,149.6c4.9,1,2.7-3.2,2.6-4.4
				c-3.2-47.7-4.9-96-0.3-143.7c9.3,7.2,15.4,18.3,23.3,27c1.4,1.8,3.4,5.5,3.1,5.8c-8.8,6.9-5.3,17.4-6.5,25.7
				c-3.1,20.8-3.4,42-4.5,63c0,18.4-1.5,49.4,7.9,64.8c4-1.2,2.1-5,2.1-7.6c-4.1-31.4-1.2-63.5-1.5-95.2c0.3-13.5,2.3-27,3.8-40.5
				c0.2-1.8,1.7-3.4,2.5-5.1c5.4,5.4,10.6,11.8,14,18.5c3.3,7.4,13.1,13.9,10.5,21.3c-6.1,17.4-9.8,35.5-12.2,53.3
				c-1.1,8.5-0.6,18.8-1,28.3c-0.5,20.7-6.4,54.1,3.9,72.6c1.2-50,5.3-100.2,14.6-149.7c6.8,13,13.9,25.8,20.2,39.1
				c2.5,5.2,7.5,10.5,5.3,16.4c-10.1,29.6-21.9,102.2-13.6,131c4.2-8.2,4.1-18.6,5.4-27.7c1.9-32.9,6-65.6,12.4-97.9
				c5.7,14.5,10.9,27,15.5,39.7c3.1,8.8,8,18.1,7.3,26.7c-5.7,32.4-20.2,63.4-16.7,97.4c6.9-28.3,13.7-56.7,20.6-85.1
				c3.7,10.8,7.7,21.1,10.8,31.8c3.8,13.1-5.5,24.2-6.5,37c-1.4,24.3-11.8,49.3-5.1,73.8c9.2-30.6,10.1-61.5,16.4-94.5
				c2,6,3.8,9.8,4.5,13.9c3.3,18.1,16.3,33,11.5,54.2c-5.7,24.9-9.9,50.9-4.1,77.5c1.2-1.7,3.1-3.3,3.3-5.1
				c3-23.4,3.3-47.5,7.5-70.6c0.8,0.7,2,1.3,2.3,2.2c5.5,16.7,10.5,33.7,16.6,50.2c1.5,4.1,3,12.4,8.4,10.7c4.6-1.4,1-8.1-0.4-12.5
				c-2.9-8.7-5.3-17.5-8.1-26.7c24.6,16.8,37.4,43.6,58.3,63.1c-9.5-24.1-27.1-43.4-44.8-61.9c-5.2-5-15.4-4.3-16.9-11.6
				c-3.9-18.3-11.3-35.4-17.2-55.7c24.6,27.8,46.6,53.9,71.6,80.7c1.4,1.3-0.7,5,3.1,4.3c-8.9-29.2-35.7-49.8-54.9-72.7
				c-7.4-8-18.1-14.1-22.6-23.4c-7.6-15.7-11.4-33.3-17.9-53.2c31.8,31.7,55,66.3,82.3,97.6c-20.9-37.2-44.3-73.5-78.8-99.7
				c-2.2-1.7-5.5-3.4-6.1-5.7c-3.8-14.1-7.3-28.3-13.5-41.7c-1-2.2-0.3-5.1-0.4-7.7c30.4,17.3,51.1,49,73.1,75.8
				c5.5,5.9,12.6,23.3,20.1,24.6c-9.4-11.1-12.4-25-20.5-36.5c-17.5-24.8-37.4-46.6-61.3-65.3c-5.4-4.3-14-1.9-17.1-9.7
				c-4.8-12.3-6.7-25.8-14.6-37c-1.5-2.1-1.5-5.2-2.2-7.8c24.7,14.4,46.7,33.6,69.7,50.5c11.6,9.1,21.8,20,32.7,29.9
				c1,0.9,2.7,1,4.1,1.5c-21.9-32.4-57.3-57.9-90.3-80.3c-8.6-7.8-22.5-7.9-27.1-21.6c-3.2-10.9-11.7-20-15.5-30.6
				c30.6,13.9,60.1,33.5,84.3,57.4c6,6,10.8,13.2,20.7,19c-21.9-34.9-53-59.7-89.8-75.2c-24.3-10.7-34.9-31.5-48.4-50.4
				c29.8,10.4,57.5,29.4,85.1,45.3c8.8,5.5,16.9,13,30.2,16.4c-8.5-8.7-18.2-16.2-28.7-22.4c-13.7-8-26.1-18.9-40.5-25.3
				c-15.5-6.8-29.9-16-46.6-20.5c-14.1-3.8-18.1-20-32.8-28.3c44.3,6.2,82.2,20.2,118,40.7c-24.4-27.5-63.1-35-97.2-44.3
				c-12.2-2.8-26.5,0.8-34-13.6c-10.2-8.4-19.5-16.4-30.4-26.2c51.6,5,102.3,12.5,147.2,39.7c1.4,0.9,3.4,3.2,4.9,0.5
				c-5.3-11-25.9-18.1-36.8-23.7c-27.5-12.1-56.7-16.6-86.1-21.3c-16.4-2.6-34.8,3.9-49.1-11.4c-43-32.6-93.8-62.3-149-67.1
				c12.3-4.1,25.9-3,38.5-4.1c12.7-2.3,25.6-5.5,38.4-5.3c44.8,3.2,90.9,1.6,134.4,13c67.3,19,115.8,78.7,151.6,135.7
				c12,23.2,21.7,47.7,32.3,71.6c2.5,5.6,8.5,13,5.1,17.1c-6,7.4,0.8,6.6,3.4,9c7.4,7.5,5.7,20.1,10.7,29
				c6.9,15.5,6.7,32.5,12.3,48.4c8.3,27.7,12.7,57.3,18.5,85.8c1.6,10.8,1.7,22.8,5,32.3c14.6,53.4,16.2,108.3,25.4,162.6
				c0.8,4.2,1.2,9.5,5,9.2c3.8-0.4,2.9-6.3,2.7-9.9c-0.4-17.7-4.5-35.8-3.1-53.3c38,46.3,64.8,100.3,103.8,146.3
				c0.1-12.7-8.9-19.9-14.3-28.6c-12.8-20.8-26.7-41-40.3-61.2c-11.5-16.9-23.6-33.6-35-50.7c-7.7-11.5-21.1-19.9-20.9-36
				c0.3-19.6-5-38.4-8.2-60.3c19.3,28.3,38.9,51.2,57,79.5C566,890,580,908,595.2,925.3c0.9,1,2.8,1,4.3,1.5
				c-1.4-7-5.3-12.5-9.5-17.9c-26.3-35.8-48.2-74.8-75.8-109.6c-7-8.8-18-15.4-20.7-26.5c-4.2-16.8-5.8-34.3-8.5-50.8
				c37.4,33.1,64.2,80.6,107.8,106.7c-4.3-10.3-15-17.5-21.9-26.3c-28.3-29.7-56.1-60-84-90.2c-2.2-2.3-6.6-3-6.5-6.9
				c0.3-14.7-6.3-27.9-7.3-43.4c33.8,33.5,65.6,67,102.1,98.1c1.5,0.8,3.5,4.9,6,2.7c2.1-1.8-1-4.2-2.6-5.8
				c-33.5-35.8-68.6-70.1-104.4-103.6c-10.5-9.7-8.6-22.7-12.9-34c-3.5-9-5.5-18.4-8.2-27.7c13.4,15.6,31.8,26.8,45.2,42.4
				c13.8,16,29.1,30.2,50.4,42.7c-14.6-20.4-31.5-33.5-45.9-49c-16.8-19.3-39.7-34.2-55.4-54.1c-11.8-31.4-21.8-55.6-37.5-88.4
				c36.4,34.8,66.1,70.6,101.5,100.3c-19.6-35.2-53.2-60.3-79.5-90.4c-10.1-10.3-23.8-17.5-32-28.9c-27.6-40-59-77.8-98.7-106.3
				c29,7.6,55,21.9,81.3,35.5c29.5,17.2,51.1,44.6,74.3,69.1c48.7,57.3,83.2,126.1,109,196.5c30.9,83.8,51.3,172.3,58.7,261.3
				c1.2,35.4,8.9,69.8,10.3,105.1c1.3,28.1-0.3,56.4,1.6,84.5c4.1,71.3-14.1,141.5-3.5,212.5c1.5,27.9,1.6,56.2,15.2,81.7
				c2.2,4,20.7,16.1-1.5,18.8c-22.6,2.6-45.3,4-68,4.1c-64.1,0-130.3-1-191.8-20.1c40.9-19.4,76-49.5,110.3-79.2
				c38.9-32.7,85.7-62.8,101.7-114.1C638.4,1101,558.7,967,447.1,930.2c-49.5-18.8-107.1-14.5-151.5,15.2
				c-20.8,13.8-34.5,35.3-52,52.5c-17.2,16.9-33,35.4-48.4,54c-27.3,31.5-71.3,66.5-63,113.6c13,77.8,56.3,147.3,119,195
				c-36.1-9.8-67.7-34.5-98.3-55.8c-21.6-14.8-42.9-29.7-62.3-47.4c-15.6-14.3-29.9-29.7-43.8-45.7c-12.6-14.5-27.5-26.9-36.5-44.4
				c-1.5-2.9-4.4-5.8-8.4-4c-16.3,9.2,79.1,102.1,92.4,111.6c-9.6-0.4-97.4-6.3-94.3,5.7c1.2,4.6,8.1,2.2,12.2,2.3
				c22,0.3,44.1,0,66.1,0.2c9.2,0.1,19.5-1.4,27.2,2.2c12,5.7,22.3,15.1,34.7,24c-34.1-2.4-64.2-2.8-97.7-3.2
				c-14.2,1.2-28.7,1.8-42.6,3.8c-5.1,3-2.3,5.9,2.2,5.1c49-0.7,99.5,4,148,0.5c6.5,4.4,13.9,8.7,18,14.9c2.2,3.3-5.1,7.7-8.6,11.3
				c-4.1,5.1-5.2,12.8-13.5,11.3c-31.4-1.4-62.8-5.6-94.3-2.3c-14.5,1.6-29.1,2.6-43.6,4.4c-3.8-0.3-11.2,5.6-3.6,7.7
				c11.1-0.6,22.2-0.7,33.1-2.3c36.8-4.8,75.1,0.1,111.5-1c-0.6,7.1-2,14.4-1.6,21.6c0.3,5.7-0.5,8.2-6.7,7.8
				c-44-3.3-88-4.8-132-4.2c-8.7,0.4-9.1,9.6,0,8.2c45-1.5,90.1,3.1,135,3.3c7.8-0.1,9.3,2,10.6,7.3c1.4,5.7-0.2,15.1-3.4,15.1
				c-45-0.5-89.8-1.2-134.9-1.8c-5.6-0.5-14.3-0.8-14.3,5s9.1,4.8,14.3,4.9c42.2,0.3,84.4,0.2,126.7,0.1c5.3,0,7.7-0.3,4.7,6.4
				c-4.6,7.6,1,23.4-5.8,21.6c-45.3-1.1-90.3-3.9-135.6-3.8c-4.8,0.5-9.4,7.5-1,6.9c19.8,0.8,39.5,1.6,59.3,2.3
				c23.8,0.9,47.6,2.3,71.4,2.4c7.3,0.1,12.5,0.5,14.8,8.3c2.7,8.9,13.5,25.1-4.4,22c-42.8-4.3-85.9,0.5-128.5,0.4
				c-3.4-0.2-12.1-0.3-11.7,3.8c0.5,5.2,7.9,3.8,12.7,3.8c39.1,1.5,78-1.4,117-1.7c23.2-1.3,24.3,0.6,23.5,24.2
				c-0.1,2.9-0.9,3.6-3.7,3.4c-31.2-1.5-62.5-1.4-93.6-4.4c-11.9-0.8-52.3-6-58.3,4.3c49.3,3.6,99.9,7,149.8,6.2
				c14.7-2.4,1.1,12.1,13.6,17.3c1.2,0.6,1.9,2.4,2.8,3.7c-52.9-1.6-106.7-1.2-160-0.9c-3.2,0-6.8,0.8-6.8,5.5
				c0.1,5.3,3.2,6.8,7.6,6.5c34.1,0,68.2-0.3,102.4,0.1c248.3,3.1,496.7,1.4,745.2,1.9c5.7,0.7,7-7.5,1.3-8
				c-64.5-4.7-129.3-0.9-194-2.2c-156.9-3.7-313.8-2.5-470.7-1.9c10.4-6.3,13.4-21.6,30.5-18.6c52.1,0.4,105.6-2.5,158.1-1.5
				c143.6-3.1,287.3-5.1,431-8.7c4.5,0.1,6.1-6.7,0-5.4c-107-3.5-214.4,3.3-321.3,0.7c-32.9,3.2-65.4,3-98.1,1.9
				c-54.1,2.4-108.6,1.4-162.8,2.6c29-15.9,49,1.7,72.7-17.6c10.4-8.4,22.6-9.5,33.5-8.6c143.2,3.5,286.5,0.3,429.8,1.2
				c5.3,0,14.6-1.4,14.2-4.3c-0.9-6.5-7.8-2.6-12.6-2.8c-135.4-5.8-270.9-1.5-406-3.2c-9.4-0.4-23-0.2-25.9-3.1
				c28.7-17.2,52.4-5.6,81.1-1.4c12.9,0.6,25.1-2.6,37.4-10.4c6.1-3.9,13.6-7.5,20.5-7.6c29.2-0.4,57.7,2.9,86.2,11.6
				c7.9,2.3,16.1,3.5,24.3,3.4c41.2-1.8,79.1-22.9,120.9-18.2c12.1,0.7,24.2-0.9,36.3,1.6c2.9,0.6,10.3,3.1,10.6-3.5
				c0.2-5.7-5.8-6-10.5-6.1c-13.8-0.2-27.8,0.7-41.4-1c-6.1-0.8-11.8,2.8-18.3,0.2c78.2-44.1,77.8-10.3,144.3-21.1
				c19.6-5.8,51.6-26.3,53-47.9c-1.9-5.1-8.2-2.7-12-2c-18.9,3.7-37.6,5.1-56.8,1.9c-17.3-2.8-35-5.7-52.4-5.4
				c-17,0.2-2.7-7.4-3.7-12c-1.5-13,14.9,9,60.5-8.6c63.1-20.3,116-63.6,154.8-116.5c1.6-2.5,0.2-6.3,0.3-9.2
				c-1.1,0.4-2.5,0.6-3.3,1.3c-8.2,8.4-15.8,17.4-24.6,25.2c-24.2,21.3-49.4,41.4-76.8,58.4c-31.4,23.2-68.7,37.1-108.1,36.1
				c25.6-56.5,10.3-120.7,12.9-180.7c-3.7-110.2-13.3-220.1-12-330.4c-0.4-48.8,4.4-98,2-147c-0.6-62.1,6.7-124.8,23.7-184.5
				c12.3-59.9,45.4-118.6,95.4-154.3c25-17.7,54.8-27.1,82.3-40.2c-14.8,32.3-48.5,51.6-69.3,80c-21.8,26.7-41.8,54.8-59.9,84.1
				c-11.7,19-21.8,38.9-29.1,60.1c-0.3,0.8,0.5,2,0.9,3c5.5-3.2,8.5-12.3,12-17.8c31.8-59.5,73-113.6,118.7-163.1
				c-1.6,5.7-4.3,10.5-6.9,15.3c-7.9,14.6-10.3,32.2-19.2,45.4c-29.3,44-63.1,83-79.8,135c13.7-16,21.2-34.9,33-52.2
				c13.5-19.1,23.8-42.4,39.5-59.1c-3.4,13.2-6.7,27-9.4,40.5c-3.3,12.1-1.2,25.5-13.1,35.4c-20.7,22-82.5,103.4-79.8,130.5
				c24.8-43.3,51.6-85.3,85.3-125.8c2.3,41.3-14.4,55-35.6,85.7c-11.5,17.8-21.3,36.7-33.4,54c-10.3,16.9-23.7,35-26.6,54.5
				c32.6-46.2,59.4-93.8,91.1-142.3c-1.9,19.1-4.5,36.5-4.6,53.8c-13.5,1.3-15.5,14.3-20.9,22.6c-25.7,41.1-51.4,81.3-64.6,128.9
				c30.2-47.5,51.1-101.3,85.3-146.3c2.2,19.1-0.8,38.8-1.1,58.1c-0.6,10.9,0.4,22.2-7.7,31.6c-17.2,20.7-30.7,44.3-44.7,67.1
				c-8.1,13.8-15.3,28-17.2,44.5c20-37.3,42-73.3,67.3-107.3c0,13.2,0,26.2,0,39.3c0,7.5,1.3,15.4-3,22.2
				c-16.8,26-35.2,51.3-49.6,78.7c-8.3,15.4-19,31.2-20.7,48.5c1-0.7,2.4-1.1,3-2.1c6.7-11.7,13-23.6,19.9-35.2
				c15.4-25.9,31.8-53.3,49-77.7c0,16.5,0.5,33.9-0.2,51.2c-0.3,7.7,2.8,15.7-3.6,23.3c-26.6,34.2-46.2,74.4-61.2,114.9
				c-0.7,2-1.4,4.4,0.8,5.2c2.7,1,2.2-2.1,2.9-3.4c19-34.8,34.8-75.5,59.3-106.3c0,16.3-2,34.3,0.5,51.6c3.5,23.9-8.4,41-20.6,58.3
				c-16.5,25.9-31.8,52.9-40.3,82.5c2.3,2.3,7.1-6.8,7.6-8.8c15.7-29.9,32.5-60.5,50.7-88.7c0,20.5,1.2,40.8-0.6,60.9
				c-0.6,7.1,2,15-2.4,21.8c-18,26-33.5,53.6-46.4,82.4c-5.2,11.9-13.2,23.4-12.3,37.7c20.6-33.7,33.5-71.2,58.5-104.7
				c-7.1,40.4-14.3,76.8-20.3,116.8c-4,21.1-10.3,41.3-16.1,61.8c-0.7,2.4,0.4,5.4,0.7,8.1c0.9-0.4,2.4-0.6,2.7-1.3
				c5.5-14.7,11.5-29.3,16.3-44.3c9-25.4,12.8-52.4,17.3-78.5c13.4,14.2,8.8,91.5,7.7,114.2c-0.3,2.2,0.7,4.3,3.3,4.7
				c0.7-0.1,1.3-0.6,1.6-1.2c3.6-31.5,5.5-63,2.1-94.5c1.2-21.3-14.5-28.1-11.8-45.8c4-28.7,8.9-52.7,11-82.5
				c9.5,37.5,21.1,67.1,27.3,103.8c2.9,20.2,8,40,9.7,60.3c0.3,3.4,2.4,6.7,3.7,10.1c2.3-3-1.2-5.5-0.8-8.3
				c3.8-31.2-5.9-62.3-12.6-92.5c-5.1-19.8-10.7-39.3-17.7-58.4c-5.2-14.2-10.4-28-8.9-43.8c2-26,0.7-48.5,2.8-75.3
				c31.4,59.4,45.4,122.2,63.4,186.1l-0.1,0.1c2.3-1.2,3.4-2.2,2.7-5.6c-6.5-33.4-11.8-67.2-23.3-99.3
				c-5.3-17.5-14.8-33.7-20.4-51.1c-33.5-61.9-20.1-36.8-22.7-105.8c3.5,1.6,3.4,3.3,4,4.7c9.1,20.9,18.8,41.5,27.2,62.7
				c11.4,28.5,21.8,57.5,32.8,86.2c0.6,1.5,2.8,2.5,4.2,3.7c-9.3-50.6-36.2-100.1-53.7-149.1c-5.7-15.2-15.8-28.9-13-46.6
				c3.5-22.2,1.8-40.3,0.6-64.1c33.8,58,50.2,120.3,76.4,180.3c1.5-9.3-3-16-5-22.9c-13.5-47.3-31.2-93.3-52.8-137.5
				c-5-12.7-17.3-22-16.9-37.1c0.3-11.3-1.8-23.1,0.7-33.9c2.1-9-2.9-18.1,2-25.9c32.5,50.8,52,108.1,77.5,162.6
				c4.2-15.1-6.5-28-11.8-41.4c-13.8-36.1-28.9-71.8-47.3-105.8c-5.5-11.1-16.3-20.8-18.2-32.2c-3.1-18.8-0.8-38.6-0.8-62
				c32.6,43.5,56.1,86.6,76.4,131.6c-4.3-43.7-36.7-84.9-60.5-120.8c-6.5-8.5-14-16.4-12.1-29.1c4.7-24.1,3.5-49.8,10.1-73.2
				c7.6,8.1,8.3,20.3,13.3,30c11.7,24,24.1,62,37.6,82.5c-5.7-33.8-26.8-63.5-36.2-96.1c-3.5-11.8-17.9-19.2-12.8-34.1
				c4.9-20.1,8.8-36.7,14.7-58.5c6,20.2,10.4,37.8,16.5,54.8c9.8,27.9,13.5,58.2,24.8,85.1c3-18.6-7.5-37.6-9.6-56.1
				c-2.5-19-12.3-35.7-15.3-54.3c-2.5-15.3-16.6-27.5-11.1-44.8c4.9-14.8,10.8-29.2,17.9-43.1c11.9,42.3,20.4,85.7,29.8,128.8
				C979.7,513,975.2,497.6,976,494z M173.3,320.1c-7.9,4.4-20.4,1.5-30.7,0.2c-24-2.8-47.4-1-70.9,4.3c-15.1,3.7-30.9,0.2-46,4.9
				C154.9,242.2,282.4,151.9,413,66.9c-75,64.4-155.5,122-231.9,184.7c-5.2,3.6-15.8,9-11.1,16.6c3.8,5.8,10.4,2.3,16.3,1.1
				c15.7-3.3,31.6-5.9,47.5-8.1c4.9-1.1,10.3-6.3,15-0.7C221.7,277.7,200.5,303.7,173.3,320.1z M190.1,321.6c-2.9-0.7,0.2-3.1,1.2-4
				c21.1-19.1,44.3-36.1,65.1-55.5c16.4-13.6,37.9-11.6,58.7-16.1c-26.7,23.4-52.4,43.7-79.7,65.5
				C218.9,329.1,212.3,328.5,190.1,321.6L190.1,321.6z M752.7,415.4c6.2,20-5.5,39.5-14.9,56.6c-7,11.6-18.4,19.3-29.3,30.5
				c4-21.1,10.1-39.2,5-59.1c-3.5-9.8,6.7-7.8,10.6-9.9c8.4-4.4,17.7-7,23.9-14.9C749.2,417.2,751.1,416.5,752.7,415.4z
				 M646.7,378.7c22.3,14.5,72.9,7.3,88.2-16c5.6-3.9,16.4,14.1,14.4,21.8c-0.8,25.6-42,36.3-62.4,38c-16.2,2.5-31.2-2.5-45.3-10.1
				c-23-10.1-64.1-50.2-30-70c6.6-1.2,4.8,6.4,6.7,9.9C624.5,364.7,636,371.6,646.7,378.7L646.7,378.7z M651.7,166.3
				c6.9-8.6,19.4-12.9,29.6-18.8c15.3-8.8,30.8-17.2,48.1-26.8c-23.2,56.5-44.2,109.7-64,166.7c-6.5,18.6-25.6,24.7-35.3,39.8
				c6.7-14.6,3.9-26.1-9.5-34.9c-12.2-8-26.1-4.7-39.5-5.5C605,246.5,624.8,204.2,651.7,166.3L651.7,166.3z M535.6,227.8
				c32.1-17.9,64-36.4,97.2-52.1c-18.7,37.8-44.1,71.9-63.1,109.7c-3.3,6.2-11.3,2.1-16.7,1.4c-10.7-1.4-23.2-1.4-26-13.6
				c0.1-10.2,5.9-16.5,4.4-24.4c-0.4-2.2,0.1-5.6-1.2-6.6C515.6,231.2,532.3,229.7,535.6,227.8z M436.3,289.6
				c-13.7-2.5-27.3,0.4-40.7,2c-14.9,0.6-28.9,5.9-41.8,13.4c17.3-16,35.6-30.9,58.6-37.9c14.7-3.5,46.6-21.4,58.2-6.7
				c5.5,10.3-3,18.5-9.5,25.4C454.4,298.2,445,291.1,436.3,289.6z M523.5,378.1c-96.7-35-32.6-32.3-58.8-75.1
				c-4.1-5.8,1.5-7.9,4.3-10.5c24.3-20.4,12.2-52.2-20.8-46.6c-10.1,4.8-22,3.6-31.7,9.6c-8.3,1.3,9-27.6,25.6-28.2
				c5.3-1,7.5-2.8,7-8.2c-0.9-10,5.9-11.7,13.3-10.5c23.8,2.4,23,33.5,45.6,34.2c11.9,0.8,15.8,5.6,10.3,16.2
				c-16.3,33.2,26.4,42.5,49.2,39.8c16.4,1.6,32.3-4.2,47.4,4.1c6.4,3.5,9.2,9.5,7.4,14.8c-4.6,24.8-24.7,8-33.3,37.5
				c-0.5,1.9-0.3,3.5-2.9,3.7c-15.6,1.2-28.3,8.8-39,19.4C538.7,386.7,530.4,380.4,523.5,378.1L523.5,378.1z M458.4,445.7
				c-4.6-9.5,6.4-14.3,13.6-18.5c15.1-8.8,33.4-6.9,49.1-14c27.4-13,34.4-38.1,65.6-46.2c5.2,25.7,19.6,45.6,42.5,59.6
				c-35.5-1.6-41.5,22.1-67.5,36.4c-17,8.6-51.5,16.1-70.2,10.1C477.4,467.3,464.7,459,458.4,445.7L458.4,445.7z M496.1,492.3
				c-2.3-2.6-0.6-3.3,2-3.2c13.6,0.2,27.2,0.4,40.3-3.9c3.7-1.2,4.6,1,4.5,4.5c-0.5,24.7,9.3,46.2,23.5,69.9
				C537.9,539.3,519.2,517.1,496.1,492.3L496.1,492.3z M567,632.5c-11.3-36.1-31.2-67.3-47.7-101.1c11.8,11.2,44.7,44.5,60.9,38.2
				c3-3.7-0.4-7.3-2.3-10.4c-12-19.6-15.7-41.8-21.2-63.7c-5.4-21.3,13.2-18.6,22.3-23.8c10.3-5.9,17.3-13.8,24.4-22.7
				c20.9-10.7,47.6-18.6,71.2-9.8c5,3.6,24.5-1.8,19.1,8.3c-29,38.4-66.9,71.1-92.6,111.5c-0.9,2.8,1.8,6.2,4.3,5.2
				c7.9-3.5,14.6,3.4,23.2,0.3C606.9,588.1,586.7,608.9,567,632.5z M634.8,920.6c1.7-35.4-7.5-65.3-11.5-99.2c-1-9,6.9-12.5,14-14.1
				c33.8-8.2,68.5-13.1,101.6-24.2c1.2-0.3,2.8,0.4,4.2,0.6C711.5,832.8,669.4,871.5,634.8,920.6z M728.7,1010.3
				c-25.9,25.3-52.3,50.4-79.2,74.5c-0.5-1-1.6-2.3-1.3-3.1c4.8-23.7-12.2-30.4,15-46.3c27.2-24.2,58.9-45.8,86.5-69.3
				C760.4,988.9,740.8,998,728.7,1010.3z M752.9,1002.1c5.7,21.7-5.6,36.1-19.9,50.4c-26.8,31.2-55.1,60.9-84.2,89.8
				c-1.4-13.9-1.7-27.6-0.1-40.2c1.4-8.5,10.8-13.1,17-19.1c29-27.7,57.4-56.4,86.7-83.7C752.5,1000.3,752.7,1001.2,752.9,1002.1z
				 M647.9,1171.1c3.7-33.2,34.9-46.1,51.9-69.6c16-21.3,37.3-40.1,53.6-61c16.9,39.3-48.2,90.3-63.1,127.2
				c-7.3,14.1-19.9,12-29.4,18.2c-4.7,1.5-9.2,3.2-13.7,5.2C647.4,1184.5,647.2,1177.8,647.9,1171.1L647.9,1171.1z M695.9,1175.1
				c20.1-29.6,42.6-59.1,59.6-90.4c8.6,24.5-4.2,44.6-14.3,66c-6.3,13.4-21.1,10.2-29,19.2c-3.5,2.6-11.9,14.2-16,10
				C694.6,1178.6,694.7,1176.9,695.9,1175.1L695.9,1175.1z M754.5,635.9c-0.2,19.7-0.2,24.1-18.7,18.5c-10.9-0.5-21.6-3.7-31.8-5.7
				c18.3-22.2,34.3-47,54.4-67.3C758.9,599.4,755.3,617.8,754.5,635.9L754.5,635.9z M753.6,673.3c-4.7,13.7-2.1,26-2.5,38.2
				c-0.5,15.8-1,31.7,0.2,47.4c0.7,9.4-2.9,12.1-11,14.1c-33.6,8.3-66.1,18.8-100.3,24.8C678.6,757.9,715.5,716.5,753.6,673.3
				L753.6,673.3z M637.2,938.9c-2.3-11.1,8.1-15.2,13.1-22c32.3-45,69.8-82.3,100.7-129c-0.7,16.5-1.6,31.4-2,46.3
				c0,26.2,8.6,58-22.4,69.8c-28.6,13.6-56.3,30.5-85.3,43C637.5,947.6,637.8,941.9,637.2,938.9z M750.2,907.5
				c-4,17.4,0,21-20.1,26.8c6.1-10.9,10.9-23.5,18.4-34C749.2,902.6,749.8,905.1,750.2,907.5L750.2,907.5z M653.8,949.2
				c27.1-12.2,50.4-23.2,77.8-37.5c-5.7,9.2-10.3,16.3-14.5,23.6c-1.9,3.2-6.1,6.1-2.8,10.7c3.6,5.1,8.3,3.2,11.5,0.6
				c5.9-4.7,13-6.4,19.6-9.2c3.3-1.4,2.9,1.2,3.8,3.2c5,11.2,1,18.2-8.9,24.4c-31.9,22.4-62.2,47.4-92.6,71.7
				c-2.3-25.3-3.6-50.8-7.9-76.1C638.6,954.5,648.2,951.9,653.8,949.2L653.8,949.2z M647.2,1371.4c-0.7-3.7-0.2-7.5-0.2-10.6
				c22.4,0.5,45.4-1,67.6,1c-26.1,33.4-31.1,15.2-63.5,20.5C649.8,1378.6,647.9,1375.1,647.2,1371.4L647.2,1371.4z M653.2,1395.8
				c-6.2-15,21.1-1.4,27.6-5.6c7.6-0.1-16.1,18.8-17,22.5C661.9,1416.3,653.8,1398.5,653.2,1395.8L653.2,1395.8z M442.4,1432
				c-8.1,8.8-31.9,12.7-80.3-4.9C390.7,1426.9,417,1422.7,442.4,1432z M305,1418.7c-21.6-0.9-43.3-4.2-64.9,0.2
				c-7.5,1.5-8.7-7.6-14.7-8.9c-2.2-0.5-4.1-2.3-6.1-3.5c-5.1-3.1-10.8-7.1-8.9-13.3c1.6-5.1,8-1.8,12.1-1.9
				c18.9-0.4,37.9,0.8,56.7-0.5c14-1,25.6,4.7,37.9,8.8c16.4,5.5,32.8,11.3,53.2,18.4C346,1414.8,325.7,1419.6,305,1418.7z
				 M315.5,1427c-8.8,7.6-16.8,14.2-24.5,21.1c-5.8,5.1-12.2,1.8-18.4,2.2c-7.8,0.4-13.5,5.7-19.9,9.3c-15.6,8.3-11.2-16.4-13.7-25
				c-2-11,5-11.3,11.7-9.2C272.6,1429.3,293,1426.1,315.5,1427L315.5,1427z M398.6,1390.9c-47.4,12.4-87.8-14.6-128.6-38
				c29.8,4,49.8,16.3,79.2,13.1c22-1.2,52.8-4.3,65.5,18.3C409.4,1386.5,404.1,1389,398.6,1390.9L398.6,1390.9z M250.6,1016.1
				c83.8-176.4,320.6-58.5,344.7,99.5c21.8,104.5-48.8,203.2-160.2,189.9C303.8,1293.4,202.4,1140.9,250.6,1016.1L250.6,1016.1z
				 M208.4,1051.1c9.4-12.8,20.9-24.1,33.6-38.4c-27.2,62.9,2.2,93.1-31.9,72.8c-9.3,0.4-9.2-10.8-12.3-17.1
				C193.1,1059.1,204.4,1056.5,208.4,1051.1L208.4,1051.1z M180.6,1081.9c5.9-7.6,13.6-12.6,13.4-0.1c1.8,10.7,10.5,12.2,17.8,12.9
				c14.8,1.3,19.1,9.1,19.4,22.6c0.2,8.5,3.3,16.9,5.2,25.8c-15.1-10.5-26.5-26-45.1-31.4c-5.3-1.6-11.6,2.3-15.9-2.9
				C166.4,1097.8,171.4,1089.5,180.6,1081.9L180.6,1081.9z M162.4,1103.9c3.8,10.7,8.8,16.8,23.2,16.3c19.9-1.1,31.5,25.1,50.8,29.1
				c7.6,2.3,4.7,11.5,8.6,16.6c0.2,0.3-0.1,1,0.1,1.5c1.2,3,6.2,7.2,3.4,8.6c-3.8,1.9-9.4,0.3-14.2,0.1
				c-38.8,0.5-51.2-44.7-86.4-49.3C150.4,1117.5,155.8,1110.3,162.4,1103.9L162.4,1103.9z M145.8,1158c-1.7-8.9-4.7-32.3,10.2-20.2
				c20.3,11.2,33.2,33.6,55.3,41.8c27,10.1,38.4-9,53.2,24.6c-74.3,1-68.2-36.2-113.3-37.3C144.9,1167.4,146.3,1160.7,145.8,1158
				L145.8,1158z M155.4,1199.2c-3.3-7.2-4.9-15.8-6-23.8c28.4-2.7,49.6,34.5,82.6,35c35.8-0.7,39.9,2.2,60.2,30.9
				c1.5,1.6-6.2-0.3-7.7,1.3c-41.9,11.6-67.9-44.7-120.5-32.1C157,1212.2,157.6,1203.3,155.4,1199.2L155.4,1199.2z M166.8,1227.3
				c-4.4-14.5,7-5.8,9.9-8.3c41-4.1,67.2,43,104.4,33.2c24.5-8.5,32.4,13.3,47.6,21.5c5,3,10.2,6.3,14,10.8
				c-16.9,9.1-35.1,2.4-49.3-8.1c-16.3-9.1-22.8,13.5-37.5-9.4c-11.7-12.7-25.2-14.2-40.6-10.3
				C197.3,1261.2,172.3,1245.3,166.8,1227.3L166.8,1227.3z M188.3,1264.1c1.6-0.3,3.5-1.4,4.9-1c12.1,4.1,24.6,2,36.8,1.5
				c14.5-0.6,20,11.4,28.8,18.2c18.8,13.9,21.1-8,39.3,6.5c9.2,5.4,17.9,8.6,28.9,5.9c21.9-5.4,41.6,1.4,61.7,10.4
				c38.5,15,79.6,13.6,120,3.1c-14.9,11.9-28,22.9-41.8,33c-1.8,1.3-7.1-1.5-10.5-3.1c-36-14.8-71.6-4.3-107.1-26.6
				c-7.2-3.5-14.6-1.6-21.7-0.8c-25,3-48.3,0.6-68-17c-7.2-6.4-15.4-9.2-25-9.6c-11.1-0.4-22.8,0.7-32.9-2.7
				C195.8,1280.2,192.6,1270.4,188.3,1264.1L188.3,1264.1z M248.9,1335.6C234.8,1322,221,1308,205,1292c19,7.1,37.6-1.8,53.6,14.8
				c14.7,15.1,37.1,17,58.6,15c38.4-6.9,58.2,21.8,97.8,16.6c12.1-1,23.9,2.5,35.4,6c3.4,1,6.3,3.5,13.1,1.7l-40.4,31.6
				c-5.6,4.4-5.5-3-6.4-4.2c-9.5-12.8-23.9-13.6-37.6-16.7c-19.2-4.3-38.6,1.9-57.6-2c-17.5-2.6-35.8-12.3-53.2-12.5
				C259.1,1345.9,254.1,1340.7,248.9,1335.6L248.9,1335.6z M274.3,1382.9c-68.8-5.3-57.1,17.8-66.4-30
				C228.4,1365,250.7,1373.2,274.3,1382.9L274.3,1382.9z M736.3,1387.5c-0.9,1.6-2.1,3.1-0.1,4.2c2.5,1.4,5.9,3.7,8,3
				c24.8-8.3,48.4,2.8,72.5,4.2c17.8,1.9,35.3-2.4,52.9-3.3c-16.7,22.3-43.2,33.5-70.4,32.8c-13.6-0.4-27.1-5.3-41-5.5
				c-45.5-2.1-79.6,31.3-122.5,40.5c-144.7,37.1-56.4-57.2-206.3,13.2c-8.1,2.4-17.1,0.9-25.1-2.1c-24.7-9.4-48.2-5.8-71.1,5.4
				c-17.8,8.6-31.6,25.2-51.5,28.8c-32.8,3-55.5,2-80.6,27.3c-7.1,6.3-14.7,14.7-24.1,11.9c-7.7-2.3-8.1-13.1-7.6-20.6
				c1.1-16.4,1.2-32.4-4.3-48.1c-3.4-9.6-8.4-18.6-9-29.1c-0.8-20.5,16.9-39.5,5.2-59.2c-10.2-19.8,0.5-34.7,10.9-50.3
				c5-7.4,8.1-3.2,12.6-1c22.3,10.8,17.7,31,15.8,49c-3.6,32.5,31.6,20.2,29.2,55.2c-2.3,18,10.2,38.2,29,24.3
				c19.7-15.7,31.5,4.2,51.2-24.3c9.9-12.9,27.2-18,41.2-10.5c28.6,13.9,67.2,27.9,96.2,8.2c11.4-8.5,24-6.4,36.8-5.5
				c28.2,0.4,56.4,4.5,84.6,1.9c8-1.1,16.7,1.8,24.6,0.5c23.6-3,47.8-2.8,70.6-9.8c19.6-23.6,44.7-43.2,65.7-65.7
				c9.6-11.4,17.7-24.1,28.8-39.4C750.2,1347.4,747.3,1368.9,736.3,1387.5L736.3,1387.5z M762.4,1279c-1.6,8.9-1.3,18.2-1.4,27.2
				c0,3.5-2.6,4.3-4.2,6.1c-29.6,26.7-15.8,44-56.5,40.7c-15.7,0-31.5-3.6-47.2,0c-9.2,2.1-8.5-4.6-9.1-9.9
				c-0.9-11.6-6-23.5,11-18.9c22.7,0,45.4,0.5,68.1,0.7c0.9,0,2.5-1.8,2.5-2.7c0-1.8-0.9-3.2-3.4-3.3c-27-1.3-53.9-3-80.9-4.3
				c-1.8-13.5,6.3-26.2,22.3-22.1c10.9,2.9,23.8-1.7,34.7,1.3c15.9,4.3,31.6,2.6,47.4,3.3c2.2,0.1,6,1.4,6-2.4
				c0-3.6-2.6-5.7-6.6-5.7c-13,0.1-26,0.8-38.9-2c-13.4-2.9-27-2.8-43.1-2.3c14-5.8,25.9-10.6,37.6-15.6c5.1-2.2,8.1-8.1,14.5-8
				c11.3,0.1,22.5,0.6,33.8,0.2C762.7,1260.6,764.4,1267.4,762.4,1279z M762.7,1235.1c-0.9,3.9,0,18.9-3.6,19.8
				c-11.4-3.6-23.2-1-36.1-2.3c12.9-7.5,24.6-14.5,36.5-21C762.4,1230,762.8,1233.7,762.7,1235.1L762.7,1235.1z M760.9,1213.6
				c0.1,9.7-9,12.5-15.1,14.9c-20.8,8.2-36.5,24.3-55.8,34.5c-16.8,8-34.3,13.2-48.8,25.8c-0.4-20.8,0.5-41.2,3.8-61.3
				c-1.6-19.1,8.2-35.4,31.9-35.6c19.5-0.3,34.2-8.8,50.6-16.9c21.6-10.6,21.9-15.7,32.4-41.5
				C759.5,1160.1,760.5,1186.8,760.9,1213.6L760.9,1213.6z M759.7,564.6c-17.2,30.5-48.1,53.6-66.3,83.6c-7.6,15.1,9.2,11.1,13.8,12
				c12.4,2.3,24.3,7.6,37.4,7.6c2.4,0-1.1,5.3-2.6,6.9c-39.1,41.3-77.8,83.1-116.4,124.8c-4.4,6-7.3,3.3-8.4-1.6
				c-3.8-16.7-6.8-33.6-10.3-50.3c-10.7-25.1-3.6-24.9,11.2-41.3c20.7-29.1,45.4-55.5,66.7-84.2c30.8-39.5,59.4-79,91.3-117.7
				C770.6,526.3,769.1,547.6,759.7,564.6L759.7,564.6z M870.9,183.3c-0.4,3.6-0.9,12.1-6.1,11.7c-3-0.3-1.7-2.8-1.8-4.3
				c-0.2-22.7-0.2-45.5,0.1-68.2c0-2.8-2.5-8,2.2-8.3c10.8,1.7,4.4,28.2,6.2,36C873.1,161.5,869.5,172.2,870.9,183.3z M577.2,1316.1
				c-2.9,15.5,34.5,60.7,43.5,78c1.9,2.9,8.4,5.5,5.1,9.6c-2.8,2.9-5.3-0.4-6.8-2c-20.8-19-31.5-42.4-45.8-66.6
				c-3.1,27.3-4.7,53,3.5,78.3c0.3,1.1-1.6,3.8-3,3.8c-16-20.8-10.8-51-10.5-75.9c0.2-8.6,4.8-16.9,3.6-25.7
				c-25.3,13.6-42.6,36.8-61,57.9c-5.9,6-7.1,16.1-14,21.3c-1.9-14.6,9.5-27.3,17.8-38.2c15.5-22.8,39-36.8,59.6-54.1
				c7.4-4.4,10.7-46.7,18.9-41.3c2.2,0.8,0.9,3,1.4,4.3c1.7,4.7,4.1,9.1,7,13.2c9.3,12.6,13.3,28.4,24.4,39.9
				c2.4,2.4,3.6,6.7,1.8,10C583.9,1298.2,592.2,1246.8,577.2,1316.1z M316.5,1217.3c110.2,124.7,296.1,55.9,253.9-118.6
				C546,1008,449,929.9,353,955.6C237.4,989.7,244.4,1142.2,316.5,1217.3L316.5,1217.3z M273.4,1066.2
				c10.4-100.5,120.6-132.5,199.3-82.1c48.5,29.4,84.7,80.9,92.3,137.4c17.6,72.4-36.4,152.8-114.3,149.4
				C348.7,1271.2,261.5,1166,273.4,1066.2L273.4,1066.2z M441.3,1080.7c-18.3,42.7,19.4,82.6,58.9,93.5c-7.9,30-24.7,52.3-52.1,67.3
				c-3.2,2.3-11.7,11.6-3.5,12.9c33.5,11.1,66.6-9.7,86.5-35.7C601.2,1142.1,487.8,1000,441.3,1080.7L441.3,1080.7z M535.4,1124.8
				c21.8,53-18.9,124.5-79.2,121.7c26-17,51.5-43.3,51.7-75.3c-1.3-9.9-12.8-7.8-19.4-11.7c-19.3-11.4-37.4-22.4-39.8-48.2
				c-1.3-14.4,0.7-26.8,10.8-37.2C490.9,1053.1,527.3,1096,535.4,1124.8L535.4,1124.8z M396.9,1107.9c35.1-1.5,47.7-42.2,30.8-69.5
				c-0.8-1.4-6.3-6.1,0.5-7.1c6.3-0.9,13.1-1.3,19.4,0c22,4.1,46.9,10.7,67.1,14.9c3.2-10.9-26.8-34.3-35.7-40.1
				c-45.3-33.4-143.9-44.9-152,30.5c-0.4,12.1,4.1,23.1,9.1,33.5C345.9,1090.3,367.5,1110.7,396.9,1107.9L396.9,1107.9z M373,992.5
				c47.9-11.4,91.9,11.6,127.1,42.5c-27.8-7.8-52.5-15.8-80.4-9.9c-22.6,4.3,24.7,33-3,63C359.1,1132,297,1010.9,373,992.5z
				 M298.8,1125.5c14.9,51.4,59.8,127.6,123,111.2c51.8-25.5,19.8-94-22.6-112.7c-44.3-20.4-43.8,24.5-53.9,16.3
				c-16.3-16.4-29.3-35.7-38.3-57c-5.9-11.6-0.6-25.8-8.3-36.3c-1.2,0.9-3.4,1.7-3.5,2.8C288.9,1075.3,291.5,1100.6,298.8,1125.5
				L298.8,1125.5z M348,1151.3c4.9,2.9,7,3.3,10-3.9c22.9-53.6,91.8,21.3,78.2,59.5c-2.8,11.2-16.5,21.4-30.9,22.1
				c-28,1.3-43.6-18.2-60.3-35.7c-23.7-28.2-38.3-63.7-43.4-99.9C313.3,1115.9,325.1,1138,348,1151.3L348,1151.3z M152.3,386.1
				c-11.5-15.1,68.7-6.3,75.8-4.8c26.7,4,55.1,10.7,76.3,27.7C255.7,394.1,204,381.9,152.3,386.1z M296.6,844.9
				c-0.2-0.3-0.4-0.6-0.6-0.9L296.6,844.9z M223.7,758.6c9.7-12.5,6.6-26.2,4.6-39.4c-2.4-16.1-2.3-32.7-7.4-48.3
				c-0.9-2.7,1.2-4.1,2.6-5.8c2.4,3.1,6.5,5.9,7.1,9.3c14.4,35.5,30.6,70.2,42.7,106.8c5.5,21.5,20.2,40.7,22.6,62.7
				c-26.8-40.2-38-87.5-58.6-130.6c8.2,31-1.6,64.4,15.1,94.7c15.4,27.8,27.7,57.3,39.4,87.4c-21.4-24.6-30.6-56.8-47.2-83.9
				c-0.5,1.4-1.8,3-1.4,4c2,5.7-1.4,11.7,1.8,17.3c4.5,7.9,0.9,17,1.1,25.2c0.4,16,10.5,26.3,16.3,39.1
				c6.8,15.2,14.9,29.8,22.3,44.7c0.4,0.8-0.2,2.1-0.4,3.2c-15.6-9.2-25.4-38.6-34.7-54.7c-1.4,29.2,4,58,5.3,87.2
				c0.1,2.8-2.5,8-3.9,8c-3.2,0.1-3.5-4.3-3.8-6.9c-5.4-46.2-8.7-87.2-12.8-135.3c-15.1,39.1-22.7,74.9-36.1,112.2
				c-4.8-17.7,21.5-108.9,35.7-121.7c3.9-3.6,0.4-14.2,0.4-21.5c-0.4-16.3-1.5-33.2-4.2-49.1c-15.8,31.2-26.9,64.3-39.4,96.8
				c-0.6,1.4-0.6,4.7-3.3,3.8c0.8-28.7,15.9-57,25.5-84C216.1,772.4,219,764.8,223.7,758.6L223.7,758.6z M152.4,386.2
				c0,0-0.1-0.1-0.1-0.1h0.1L152.4,386.2z"/>
		</g>
	</g>
</g>
<g>
	<g id="Layer_1_2_">
		<g transform="matrix( 1, 0, 0, 1, 0,0) ">
			<g>
				<g id="Layer0_0_FILL_1_">
					<path d="M52,1548v15l-37,37h946l-37-37v-15H52 M52,52V37.7L14.3,0H0v1600h15l37-37v-15V52 M924,52V37.7L961.7,0H14.3L52,37.7
						V52H924 M976,0h-14.3L924,37.7V52v1496v15l37,37h15V0z"/>
				</g>
			</g>
			<g>
				<path id="Layer0_0_1_STROKES_1_" class="st4" d="M961,1600h15V0h-14.3L924,37.7V52v1496v15L961,1600H15H0V0h14.3h947.4 M52,52
					V37.7L14.3,0 M15,1600l37-37v-15V52h872 M924,1548H52"/>
			</g>
		</g>
	</g>
</g>
</svg>
